<?xml version="1.0" encoding="utf-8"?>
<!-- Generator: Adobe Illustrator 19.2.1, SVG Export Plug-In . SVG Version: 6.00 Build 0)  -->
<svg version="1.1" id="layer" xmlns="http://www.w3.org/2000/svg" xmlns:xlink="http://www.w3.org/1999/xlink" x="0px" y="0px"
	 viewBox="0 0 652 652" style="enable-background:new 0 0 652 652;" xml:space="preserve">
<style type="text/css">
	.st0{fill:#3366CA;}
	.st1{fill:#FFFFFF;}
</style>
<path class="st0" d="M583.3,340.2c23.4,0,42.4-19,42.4-42.4c0-23.4-19-42.4-42.4-42.4s-42.4,19-42.4,42.4
	C541.1,321.2,559.9,340.2,583.3,340.2L583.3,340.2z"/>
<path class="st1" d="M583.3,341.5c-23.9,0-43.7-19.5-43.7-43.7c0-24.2,19.8-43.5,43.7-43.5c23.9,0,43.7,19.5,43.7,43.7
	C627,322.2,607.5,341.5,583.3,341.5z M583.3,256.9c-22.6,0-41.1,18.5-41.1,41.1s18.5,41.1,41.1,41.1s41.1-18.5,41.1-41.1
	S605.9,256.9,583.3,256.9z"/>
<path class="st1" d="M573.1,267.9c0.3,0,0,0.5,0.3,0.5l0.3,0.3l0.3,0.3c0.3,0,0,0.3,0.3,0.3s0.3,0.3,0.3,0.3c0.3,0,0,0.3,0.3,0.3
	c0,0.3,0.3,0.5,0,0.5c-0.3,0.3-0.3,0.5-0.8,0.5c0,0.3-0.3,0-0.5,0.3c-0.5,0.3-0.8,0.5-1.3,0.8c-0.3,0.3-0.5,0.3-0.8,0.5
	c0,0.3-0.5,0.3-0.8,0.5c-0.3,0-0.5,0.3-0.8,0.5c-0.3,0.3-0.5,0.3-0.8,0.5c-0.3,0-0.3,0.3-0.3,0.3c-0.3,0.5-1,0.5-1.3,1
	c-0.5,0.3-1,1-1.6,1.3c0,0.3-0.5,0.3-0.5,0.8c-0.3,0-0.3,0.5-0.8,0.5c-0.3,0.5-0.8,0.8-1,1s-0.5,0.5-0.8,0.8c-0.3,0.5-0.8,0.5-0.8,1
	c-0.3,0.3-0.8,0.5-0.8,1c0,0,0,0.3-0.3,0.3c-0.5,0.5-1,0.8-1.3,1.6c-0.3,0.3-0.5,0.5-0.8,1c-0.3,0.3-0.5,0.5-0.5,0.8
	c-0.3,0.3-0.5,0.5-0.8,0.8v0.3c-0.3,0.3-0.3,0.5-0.5,1c0,0.3-0.3,0.3-0.3,0.5c-0.3,0.3,0,0.8-0.5,1c-0.3,0.3,0,0.3-0.3,0.5
	c0,0.3,0,0.3,0,0.3c0,0.3-0.3,0.5-0.3,1c-0.3,0.3,0,0.5-0.3,0.8c0,0.8-0.3,1.3,0,1.8c0,0.5,0,1,0,1.6c-0.3,0.3,0,0.3,0.3,0.5
	c0,0.3,0,0.5,0,0.5c0,0.3,0.3,0.3,0.3,0.5v0.3c0.3,0.3,0.5,0.5,0.5,0.8c0.3,0,0.3,0.5,0.8,0.5c0.3,0.3,0.3,0.3,0.5,0.3
	s0.5,0.3,0.8,0.3c0.3,0,0.5,0.3,0.8,0.3c0.3,0,0.5,0.3,0.8,0.3c1,0.3,2.1,0.3,3.1,0.3h0.3c0.3,0,0.8-0.3,1-0.3s0.5-0.3,0.8,0
	c0.5-0.3,1.3-0.5,1.8-0.5c0-0.3,0.3,0,0.5-0.3c0.3,0,0.8,0,0.8-0.3c0,0,0.3,0,0.3-0.3c0.5,0,0.8-0.5,1.3-0.5
	c0.3-0.3,0.3-0.3,0.5-0.3c0.3-0.3,0.3-0.3,0.5-0.3s0.5-0.3,0.8-0.3s0.3-0.3,0.5-0.3c0,0,0.3,0,0.3-0.3c0.3,0,0.5-0.3,1-0.5
	c0,0,0,0,0.3,0c0.3-0.3,0.3-0.3,0.5-0.5c0.5,0,0.8-0.8,1.3-0.8c0-0.3,0.3,0,0.3-0.3c0.3-0.3,0.5-0.5,0.8-0.5c0,0,0.3,0,0.3-0.3
	c0.3-0.3,0.3-0.5,0.8-0.5c0.5-0.5,1-1,1.6-1.6c0.3,0,0.3-0.3,0.5-0.5s0.3-0.5,0.5-0.8s0.5-0.5,0.5-0.5c0-0.3,0.5-0.5,0.5-0.8
	c0.3-0.3,0.3-0.8,0.5-1c0-0.3,0.3-0.5,0.3-0.8s0-0.3,0-0.5c0.3-0.8,0-1.3-0.5-1.8c0-0.5-0.5-0.5-0.5-0.8c-0.3-0.3-0.5-0.5-0.8-0.5
	c-0.3-0.3-0.5-0.3-0.5-0.3c-0.3-0.3-0.8,0-1-0.3c-0.5,0-0.8-0.3-1.3,0c-0.3,0-0.5,0-0.5,0c-0.3,0-0.5-0.3-0.8,0c-0.5,0-1,0-1.6,0.3
	l0,0c0,0.3-0.3,0-0.5,0c-0.3,0-0.3,0.3-0.5,0c-0.3,0.3-0.5,0.3-1,0.3c-0.3,0.3-0.5,0.3-0.8,0.3h-0.3c-0.5,0.3-1,0.3-1.6,0.8
	c-0.5,0-0.5,0.5-1,0.5c-0.3,0.3-0.5,0.3-0.8,0.5c-0.3,0.3-0.8,0.5-1,0.8c0,0.3-0.5,0.3-0.5,0.5c0,0,0,0-0.3,0c0,0.3-0.3,0.3-0.3,0.5
	c-0.5,0.5-0.8,1-1,1.3c0,0.3-0.5,0.3-0.3,0.5c-0.3,0.3-0.3,0.5-0.3,0.8c0,0,0,0.3-0.3,0.3c-0.3,0,0,0.3-0.3,0.5c0,0.3,0,0.5-0.3,0.5
	c0,0.3-0.3,0.3-0.3,0.3l-0.3,0.3c-0.3,0,0,0.3,0,0.3l-0.3,0.3c0,0,0,0,0,0.3c-0.3,0,0,0.5-0.3,0.3c0,0,0,0-0.3,0c0-0.3,0-0.5,0-0.8
	c0,0,0-0.3,0.3-0.3c0,0,0-0.3-0.3,0c0,0,0,0,0,0.3c0,0,0,0.3-0.3,0.3v0.3l0,0c0,0-0.3-0.3,0-0.3c0-0.3,0-0.3,0-0.5c0,0,0,0-0.3,0
	c0,0.3,0,0.3-0.3,0.5c0,0,0,0.3,0,0.5c0,0-0.3,0-0.3-0.3v-0.3c0.3-0.3,0-0.3,0.3-0.5c-0.3-0.3,0-0.8,0-1l0,0
	c-0.3,0.3-0.3,0.5-0.5,0.8v0.3c0,0,0,0-0.3,0.3s-0.3-0.3-0.3-0.5c0.3,0,0-0.3,0.3-0.5c0-0.5,0.3-0.8,0.3-1.3c0.3,0,0-0.3,0-0.3
	c0-0.3,0.3-0.5,0.3-0.8c0.3-0.5,0.3-1.3,0.8-1.6c0-0.3,0.3-0.3,0.3-0.5c0.3-0.5,0.8-1,1-1.6c0.3-0.3,0.5-0.8,0.8-1
	c0.5-0.3,0.5-0.8,1-1c0.5-0.5,1-1,1.6-1.3c0,0,0.3-0.3,0.5-0.3c0.5-0.5,1.3-0.8,1.8-1c0.3-0.3,0.5-0.3,0.8-0.3
	c0.3-0.3,0.8-0.3,1-0.5c0.3-0.3,1-0.3,1.3-0.5c0.3,0,0.8,0,1,0c0.5,0,1-0.3,1.3,0c0.8,0,1.6,0,2.3,0.3c0.3,0,0.5,0.3,0.8,0.3
	c0.3,0.3,0.8,0.3,1.3,0.5c0.5,0,0.8,0.3,1,0.5c0.3,0.3,0.5,0.5,1,0.8c0.3,0.3,0.3,0.3,0.3,0.5c0.3,0.3,0.5,0.3,0.5,0.5
	c0.3,0.3,0.3,0.8,0.5,1c0,0.5,0.5,0.8,0.5,1s0.3,0.5,0.3,0.8c0.3,0.3,0.3,0.8,0.3,1c0.3,0.3,0,0.5,0,0.8s0,0.3,0,0.5s0,0.8-0.3,1
	c0,0.3-0.3,0.3-0.3,0.5s-0.3,0.3,0,0.5c-0.3,0.3,0,0.3-0.3,0.5c0,0.5-0.5,0.8-0.5,1c0,0,0,0.3-0.3,0.3c0,0.3-0.3,0.5-0.5,0.8
	s-0.5,0.5-0.8,1c-0.5,0.3-0.5,0.8-1,1c-0.5,0.5-0.8,0.8-1.3,1.3c-0.3,0.3-0.3,0.3-0.5,0.5c-0.3,0.5-0.5,0.5-0.8,0.8
	c-0.3,0-0.3,0.3-0.3,0.3c-0.3,0-0.5,0.5-0.8,0.5l-0.3,0.3c-0.3,0-0.3,0.3-0.5,0.3c-0.5,0.3-1,0.5-1.6,0.8s-1,0.5-1.3,0.8
	s-0.5,0.3-0.8,0.3c-0.5,0-0.8,0.5-1.3,0.5c-0.3,0-0.3,0.3-0.5,0.3c0,0-0.3,0-0.3,0.3c-0.3,0-0.3,0-0.5,0.3c-0.3,0-0.5,0.3-0.8,0.3
	s-0.3,0.3-0.5,0.3s-0.3,0.3-0.5,0.3c-0.3,0-0.3,0-0.5,0c-0.3,0-0.5,0.3-0.8,0.3s-0.3,0-0.5,0.3c-0.3,0-0.3,0.3-0.5,0
	c-0.3,0-0.5,0.3-0.8,0c-0.3,0-0.5,0-0.8,0s-0.5,0-0.8,0s-0.5-0.3-0.5,0c-0.5,0-0.8,0-1.3-0.3c-0.3,0-0.5-0.3-0.8-0.3
	c0-0.3-0.3,0-0.3,0c-0.3,0-0.3-0.3-0.5-0.3c-0.3-0.3-0.5,0-0.8-0.3c-0.3,0-0.5-0.3-0.8-0.3c-0.3,0-0.3,0-0.5,0
	c-0.3,0-0.3-0.3-0.5-0.3c-0.5-0.3-0.8-0.8-1.3-1c-0.8-0.5-1.3-1-1.8-1.8c0-0.3-0.5-0.3-0.5-0.5c-0.5-0.5-0.5-1-1-1.3
	c0-0.3,0-0.3,0-0.5s-0.3-0.5-0.3-0.8s0-0.5-0.3-1c0-0.5,0-1,0-1.3s0-0.3,0-0.5s0-0.5,0-0.8s0.3-0.8,0.3-1c0-0.5,0.3-1,0.3-1.6
	c0.3-0.3,0-0.8,0.3-1c0-0.3,0.3-0.3,0.3-0.5c0.3-0.3,0.3-0.5,0.5-0.8l0,0c0.3-0.5,0.5-1.3,1-1.8c0-0.3,0.3-0.5,0.5-1
	c0.5-0.5,0.8-1.3,1.3-1.8c0.5-0.5,0.8-1,1.3-1.6c0-0.3,0.5-0.5,0.5-0.8l0,0c0.3-0.5,0.8-0.8,1-1.3c1-1,2.3-2.3,3.4-3.4
	c0.3,0,0.3-0.3,0.3-0.3c0.5-0.3,1-0.5,1.3-1c0.5-0.3,0.8-0.8,1.3-1c0.3,0,0.3-0.3,0.5-0.3c0-0.3,0.3-0.3,0.5-0.3s0.5-0.5,1-0.5
	c0.3-0.3,0.3-0.5,0.5-0.5c0.3-0.3,0.5-0.3,0.8-0.5c0.3,0,0-0.3,0.3-0.3c0.5,0,0.8-0.5,1-0.5c0.3-0.3,0.8-0.3,1-0.5
	c0.3,0,0.5-0.3,0.5-0.3C572.6,267.6,572.9,267.6,573.1,267.9L573.1,267.9z"/>
<path class="st1" d="M603.6,276.5c0.5,0,1,0,1.3,0c0.3,0,0.3,0.3,0.5,0.3c0,0.3,0.3,0,0.5,0c0.3,0,0.5,0.3,0.8,0.3
	c0.5,0.3,1,0.3,1.3,0.8c0.3,0,0.5,0.3,0.8,0.5c0.5,0,0.5,0.5,1,0.8c0.3,0.5,0.8,0.5,1,1c0.3,0.5,0.8,0.8,1,1.3
	c0,0.3,0.3,0.3,0.3,0.5c0.3,0.3,0.3,0.5,0.5,1c0,0.3,0.3,0.3,0.3,0.3c0,0.3,0.3,0.8,0.3,1c0.3,0.8,0.3,1.3,0.5,2.1
	c0,0.3,0,0.5,0,0.5v0.3c0,0.3,0,0.5,0,0.8c0.3,0,0,0.3,0,0.5c-0.3,0.3,0,0.5-0.3,0.8c0.3,0.3-0.3,0.5-0.3,1c0,0,0,0.3-0.3,0.3
	c0,0.3,0,0.5-0.3,0.8s0,0.3-0.3,0.5c0,0.3-0.3,0.5-0.5,0.8c0,0.3-0.3,0.3-0.3,0.5s-0.3,0.3-0.3,0.5c-0.3,0-0.3,0.3-0.3,0.5
	c-0.3,0.5-0.5,0.8-0.8,1.3c-0.3,0.3-0.5,0.5-0.5,0.8c-0.3,0.3-0.5,0.8-0.8,1c-0.3,0.5-0.5,0.5-0.8,0.8c0,0.3-0.3,0-0.3,0.3
	c-0.3,0.3-0.8,0.5-1,0.8c-0.3,0-0.3,0.3-0.5,0.3c0,0.3-0.5,0.3-0.5,0.5h-0.3c0,0-0.3,0-0.3,0.3c-0.3,0.3-0.8,0.3-1,0.5
	c-0.3,0-0.3,0.3-0.5,0.3c-0.3,0.3-0.5,0.3-0.8,0.3c-0.3,0-0.3,0.3-0.5,0.3c-0.3,0-0.5,0.3-0.8,0.3c-0.5,0-0.8,0.3-1.3,0.3
	c-0.3,0.3-0.8,0-1,0.3c-0.3,0-0.5,0-1,0c-0.3,0-0.5,0-0.8,0.3c-0.3,0-0.5,0-0.8,0c-0.3,0.3-0.5,0-0.8,0c-0.5,0-0.8,0-1.3,0
	c-0.5,0-0.8,0-1.3-0.3c-0.3,0.3-0.5-0.3-0.8,0c0-0.3-0.3,0-0.3-0.3c-0.3,0-0.8,0-1-0.3c-0.3,0-0.8-0.3-1-0.3
	c-0.3-0.3-0.5-0.5-0.8-0.5c-0.3-0.3-0.5-0.5-0.8-0.8c0-0.3-0.3,0-0.3-0.3s-0.5-0.5-0.5-0.8c-0.3-0.3-0.3-0.5-0.5-0.8
	c-0.3-0.5-0.5-0.8-0.5-1.3c-0.3-0.5-0.3-1-0.3-1.6c-0.3-0.3,0.3-0.5,0.3-0.8c0-0.5,0-0.8,0.3-1c0.3-0.5,0.3-0.8,0.8-1
	c0-0.3,0.3,0,0.5-0.3c0,0,0,0,0.3,0v0.3c-0.3,0-0.3,0.5-0.5,0.5v0.3c0.3,0,0.3-0.3,0.5-0.5c0-0.3,0.5-0.3,0.3-0.5
	c0.3,0,0.5-0.3,0.8-0.5c0.3,0,0.3-0.3,0.5-0.3c0,0.3,0,0.3,0,0.3c-0.3,0.3-0.5,0-0.5,0.3s-0.3,0.3-0.3,0.3c-0.3,0-0.3,0.3-0.3,0.3
	s0,0,0.3,0c0.3-0.3,0.3-0.5,0.5-0.5c0.5,0,0.5-0.5,0.8-0.5c0-0.3,0.3,0,0.3,0s0,0-0.3,0.3c0,0,0,0-0.3,0c0,0,0,0.3,0.3,0.3l0,0l0,0
	c-0.3,0-0.3,0.5-0.5,0.5l-0.3,0.3l0,0c0-0.3,0.3,0.3,0.5-0.3c0-0.3,0.3,0,0.5-0.3c0,0,0,0,0,0.3c-0.3,0.3-0.3,0.3-0.5,0.3
	c0,0.3-0.3,0.3-0.5,0.5c-0.3,0.5-0.8,0.8-1,1.3c-0.3,0.3-0.3,0.5-0.5,0.8c-0.3,0,0,0.3-0.3,0.5c0,0.5-0.3,0.8-0.3,1.3
	c0,0.3,0,0.5,0.3,0.8c0,0.3,0.3,0.3,0.3,0.5c0.3,0.3,0.3,0.8,0.8,0.8c0.3,0.3,0.8,0.3,1,0.5c0.5,0,0.8,0.3,1,0.3s0.5,0,0.5,0.3
	c0.5,0,1.3,0,2.1,0c0.5-0.3,0.8,0,1.3-0.3c0.3,0,0.5,0,0.8,0s0.5,0,0.5-0.3c0.3,0,0.5-0.3,0.8,0c0-0.3,0.3,0,0.3,0
	c0.3-0.3,0.8-0.3,1-0.3c0.3-0.3,0.5,0,0.8-0.3c0.3,0,0.3-0.3,0.5-0.3s0.5,0,0.5-0.3c0.5-0.3,0.8-0.5,1.3-0.8s1-0.5,1.6-1
	c0,0,0.3,0,0.3-0.3c0.8-0.5,1.3-1,1.8-1.6c0-0.3,0.3-0.5,0.5-0.5c0.5-0.5,0.8-0.8,1.3-1.3c0-0.3,0.3-0.3,0.3-0.5
	c0.5-0.5,0.8-1,1-1.6c0.3,0,0.3-0.3,0.3-0.5c0.5-0.5,0.5-1,0.8-1.6c0-0.5,0.3-0.8,0.3-1.3c0.3-0.3,0.3-0.5,0.3-1c0-0.3,0-0.5,0-0.8
	c0-0.5,0.3-1.3,0-1.6c0-0.5-0.3-0.8-0.5-1.3c0-0.3-0.3-0.3-0.3-0.5c-0.3-0.5-0.8-0.5-1-1c-0.3,0-0.5-0.3-0.8-0.3
	c-0.3,0-0.5-0.3-0.8-0.3c-0.3,0-0.3,0-0.5-0.3c0-0.3-0.3,0-0.3-0.3c-0.3,0-0.3,0-0.5,0c-0.8,0-1.6-0.3-2.1,0c-0.3,0-0.5,0-0.8,0
	c0,0,0,0.3-0.3,0c0-0.3-0.3,0-0.5,0c0,0,0,0-0.3,0c0,0.3-0.3,0-0.5,0.3c-0.3,0-0.5,0-0.8,0.3c-0.3,0-0.3,0-0.5,0s-0.5,0.3-0.8,0
	c-0.3,0.3-0.5,0.3-0.8,0.3s-0.5,0-0.8,0.3c-0.3,0-0.3,0.3-0.5,0.3s-0.5,0.3-0.5,0.3c-0.3,0-0.3,0.3-0.5,0.3s-0.5,0.3-0.8,0.3
	c0,0-0.3,0-0.3,0.3c-0.3,0.3-0.5,0.3-0.5,0.5c-0.3,0-0.5,0.3-0.8,0.3c0,0-0.3,0-0.3,0.3l0,0c0,0,0,0-0.3,0c-0.5,0.3-1,0.5-1.3,1
	c-0.3,0-0.3,0.3-0.3,0.3c-0.3,0.3-0.5,0.5-1,0.8c-0.8,0.5-1.3,1.3-1.8,1.8c0,0,0,0-0.3,0c0,0.3-0.3,0.5-0.5,0.5
	c-0.3,0.3-0.3,0.5-0.5,0.5c-0.3,0.3-0.3,0.3-0.5,0.5c0,0.3-0.3,0.3-0.5,0.5c-0.3,0-0.5,0.3-0.8,0c-0.3,0-0.3,0-0.3-0.3s0-0.3,0-0.5
	c-0.3,0-0.3-0.3-0.5-0.3c-0.3-0.5-0.5-1-0.5-1.6c0-0.3,0.3-0.5,0.3-0.8c0.3-0.3,0.5-0.5,0.5-0.8c0,0,0,0,0-0.3c0.5-0.5,1-1,1.6-1.6
	c0.3-0.3,0.5-0.3,0.5-0.5c0.3,0,0.5-0.5,0.8-0.8c0.5-0.3,0.8-0.5,1-0.8c0.5-0.5,1.3-0.8,1.8-1.3c0.3-0.3,0.8-0.5,1-0.5
	c0.5-0.8,1.3-0.8,2.1-1c0.3-0.3,0.8-0.3,1-0.5c0.3,0,0.5-0.3,0.8-0.3c0.3,0,0.3,0,0.5-0.3c0.3,0,0.5,0,0.5-0.3
	c0.5,0,1.3-0.5,1.8-0.5c0,0,0,0,0.3,0c0.5,0,1,0,1.6,0c0.3,0,0.5,0,0.8,0C603.3,276.5,603.3,276.5,603.6,276.5L603.6,276.5z"/>
<path class="st1" d="M580.4,299.9c0.3,0.3,0.3,0.5,0.5,0.3c0,0,0.3,0,0.3,0.3c0.3,0,0.5,0.5,0.8,0.3c0,0.3,0.3,0.3,0.3,0.5l0.3,0.3
	c0.3,0.3,0,0.3,0,0.5c-0.3,0.3-0.5,0.5-0.8,0.8c-0.3,0,0,0.3-0.3,0.3c-0.3,0.3-0.8,0.3-1,0.8c-0.5,0.3-0.8,0.8-1.3,1
	c0,0.3-0.3,0.3-0.3,0.3c-0.5,0.5-1.3,1.3-2.1,1.8c-0.3,0-0.3,0.3-0.3,0.3c0,0.3-0.3,0-0.3,0.3c-0.3,0.3-0.3,0.3-0.5,0.5
	c-0.5,0.5-1,1-1.6,1.6c0,0,0,0,0,0.3c0,0,0,0.3-0.3,0.3c0,0.3-0.3,0.3-0.3,0.5c0,0-0.3,0-0.3,0.3c-0.3,0.3-0.3,0.8-0.8,0.8
	c-0.3,0.3-0.5,0.8-1,1c0,0,0,0.3-0.3,0.3c-0.3,0,0,0.3-0.3,0.3c0,0.3-0.3,0.3-0.3,0.5s-0.3,0.3-0.3,0.5s-0.3,0.5-0.5,0.8
	c-0.3,0.3-0.5,0.5-0.5,1c-0.3,0.3-0.3,0.8-0.8,1c0,0.3-0.3,0.5-0.3,0.8c-0.3,0.3,0,0.3-0.3,0.5v0.3c0,0.3-0.3,0.3-0.3,0.5
	c0,0.3,0,0.5-0.3,0.8c0.3,0.3-0.3,0.3,0,0.5c-0.3,0,0,0.3-0.3,0.5v0.3c0,0.3-0.3,0.8,0,1.3c0,0.3,0,0.8,0.3,1c0,0.3,0,0.5,0.3,0.8
	c0,0,0,0.3,0.3,0.3c0,0.3,0.3,0.3,0,0.3c0.3,0.3,0.3,0.3,0.5,0.5l0.3,0.3c0.3,0.3,0.5,0.5,0.8,0.5l0.3,0.3c0.3,0.3,0.5,0.3,0.8,0.3
	c0.3,0.3,0.8,0.3,1.3,0.3h0.3c0.3,0.3,0.5,0,0.8,0c0,0,0.3,0,0.5,0s0.3,0,0.5,0s0.5,0.3,0.8,0c0.5,0,0.8,0,1.3-0.3
	c0.3,0,0.3,0,0.5,0c0.3,0,0.5-0.3,0.8,0c0.3,0,0.5,0,0.8,0s0.8-0.3,1-0.3s0.5-0.3,0.8,0c0.5,0,0.8-0.3,1.3-0.3h0.3h0.3
	c0.3-0.3,0.5,0,0.8-0.3h0.3c0.3,0,0.5,0,0.8-0.3c0.5,0,0.8-0.3,1.3-0.3c0.3-0.3,0.8-0.3,1-0.3c0.3-0.3,0.8-0.3,1-0.5
	c0.3-0.3,0.5,0,0.5-0.3c0.3,0,0.5,0,0.5-0.3c0.3,0,0.5-0.3,0.8-0.5c0.3,0,0.5,0,0.5-0.3c0,0,0,0,0.3,0c0.3-0.3,0.5-0.5,0.8-0.3
	c0,0-0.3,0.3,0,0.3c0,0.3-0.3,0-0.3,0.3c-0.3,0-0.3,0.3-0.5,0.3l0,0c0,0,0,0,0,0.3c0-0.3,0.3,0,0.5-0.3c0.3,0,0.5-0.3,0.8-0.3
	s0.5-0.5,0.8-0.3c0,0,0,0.3-0.3,0.3c0,0,0,0,0,0.3s0.3-0.3,0.5,0c0.3-0.3,0.5,0,0.5-0.5c0-0.3,0.3-0.3,0.5-0.3c0,0,0.3,0,0.3,0.3
	c-0.3,0-0.3,0.5-0.8,0.5c0,0-0.3,0-0.3,0.3s0,0,0.3,0c0.3,0,0.5-0.3,0.5,0h0.3c0,0.3-0.3,0.3-0.3,0.3s-0.3,0-0.3,0.3
	s-0.5,0.3-0.5,0.5c0,0,0.3,0.3,0.3,0c0.3-0.3,0.5,0,0.5-0.3h0.3c0,0,0,0.5-0.3,0.3c0,0-0.3,0-0.5,0.3c0.3,0,0,0-0.3,0
	c-0.3,0.3-0.5,0.3-0.8,0.5l-0.3,0.3c-0.5,0.3-1,0.5-1.6,0.8c-0.3,0-0.3,0-0.5,0.3c0,0,0,0-0.3,0.3c-0.3,0.3-0.8,0.3-1,0.3
	c0,0,0,0.3-0.3,0c0,0.3-0.3,0-0.3,0.3c-0.3,0-0.5,0-0.8,0.3c-0.3,0-0.8,0.3-1,0.3c-0.3,0.3-0.8,0-1,0.3c-0.3,0-0.3,0-0.3,0
	c-0.5,0-0.8,0-1.3,0.3c-0.3,0-0.8,0-1,0.3c-0.3,0-0.5,0-0.5,0c-0.3,0-0.5,0-0.5,0c-0.5,0-0.8,0-1.3,0h-0.3c0,0-0.3,0-0.5,0
	s-0.5,0-0.8,0c-0.3,0.3-0.5,0-0.5,0c-0.3,0-0.8,0.3-1,0c-0.3,0-0.3,0-0.5,0c-0.5,0-0.8-0.3-1.3-0.3h-0.3c-0.3-0.3-0.8-0.3-1.3-0.3
	c-0.8,0-1.3-0.5-2.1-0.8c-0.3,0-0.5-0.3-0.8-0.5c-0.3-0.3-0.5,0-0.5-0.3c-0.3-0.3-0.5-0.5-1-0.8c-0.3-0.3-0.5-0.5-0.8-0.8
	s-0.5-0.8-0.8-1c0-0.3-0.5-0.3-0.5-0.5c-0.3-0.5-0.5-1-0.5-1.6c-0.3-0.3,0-0.8-0.3-1c0-0.3-0.3-0.3,0-0.5c0-0.3,0-0.5,0-0.8l0,0
	c0-0.5,0-1,0-1.3s0.3-0.5,0.3-1c0-0.3,0-0.3,0.3-0.5c0-0.3,0-0.8,0.3-1.3c0-0.3,0.3-0.5,0.3-0.8s0.3-0.5,0.3-0.8s0.3-0.5,0.3-0.8
	c0,0,0,0,0.3,0c0-0.3,0.3-0.3,0.3-0.3c0-0.3,0.5-0.5,0.5-1c0.3-0.5,0.8-0.8,1-1.3c0.3-0.3,0.3-0.5,0.5-0.5c0-0.3,0.3-0.3,0.3-0.5
	c0.3-0.3,0.5-0.8,0.8-1c0.3-0.5,0.8-0.5,0.8-1c0.5-0.3,0.5-1,1-1.3c0.3-0.3,0.5-0.5,0.8-0.8c0.3-0.3,0.3-0.5,0.5-0.5
	c0.3-0.3,0.8-0.8,1-1.3c0-0.3,0.3-0.3,0.3-0.3c0.3-0.3,0.5-0.5,1-0.8c0.3,0,0.3-0.3,0.3-0.5l0,0c0.3-0.3,0.5-0.3,0.5-0.5
	c0.5-0.3,0.5-0.8,1-0.8c0.3-0.3,0.5-0.3,0.8-0.5s0.5-0.5,0.8-0.5c0.3-0.3,0.5-0.5,0.8-0.5h0.3C579.9,299.6,580.2,299.9,580.4,299.9
	C580.2,299.9,580.4,299.9,580.4,299.9L580.4,299.9z"/>
<path d="M27,301.9h28.1v23.2C60.6,323,66,322,71.8,322c11.4,0,20.6,3.6,27.6,10.7c7.3,7,10.7,16.1,10.9,27.6
	c0,8.8-2.9,16.9-8.8,24.5c-6,7.8-15.6,12-28.6,12.2H27V301.9z M55.1,372.5c3.6,0.5,7,1,9.6,1c5.5,0,9.6-1.3,12.7-3.9
	c3.1-2.3,4.7-5.7,4.7-10.1c0-4.2-1.6-7.8-4.4-10.4c-3.1-2.3-7-3.6-12.2-3.9c-3.4,0-6.8,0.5-10.7,1.8v25.5H55.1z M113.9,360
	c0-9.9,3.4-18.7,10.1-26.3c6.8-7.8,17.7-11.7,32.5-11.7c15.4,0.3,26.5,4.4,33,12.2c6.5,7.5,9.9,16.1,9.6,25.8
	c0,10.1-3.4,19-10.4,26.3c-7,7.8-17.7,11.7-32.3,11.7c-15.1-0.3-26.3-4.4-33-12.5C117,377.9,113.6,369.3,113.9,360z M141.7,360
	c0,4.2,1.3,7.5,4.2,10.1c2.6,2.6,6.2,3.9,10.7,3.9c4.4,0,8.1-1.3,10.7-3.9c2.6-2.6,4.2-6,4.2-10.1s-1.3-7.8-4.2-10.4
	c-2.6-2.6-6.2-3.9-10.7-3.9c-4.4,0-8.1,1.3-10.7,3.9C143.3,352.2,141.7,355.5,141.7,360z M202.9,301.9H231v94.7h-28.1V301.9z
	 M252.6,363.9c4.7,0,8.6,1.8,11.7,4.9s4.7,7.3,4.7,12.2c0,4.7-1.6,8.8-4.7,12c-3.1,3.4-7,4.9-11.7,5.2c-4.7,0-8.6-1.8-11.4-5.2
	c-3.4-3.1-4.9-7.3-4.9-12c0-4.9,1.6-9.1,4.9-12.2C244,365.4,247.9,363.9,252.6,363.9z M333.2,393.3c-8.3,3.1-15.9,4.7-22.6,4.4
	c-12,0-21.6-3.6-29.1-10.4s-11.2-15.9-11.2-27.1c0-9.6,3.1-18.5,9.6-26.3s16.4-12,29.9-12.2c7.8,0,15.4,1.3,22.9,3.9v24.5
	c-6-3.1-12-4.7-17.7-4.7c-4.9,0-9.1,1.3-12,3.9c-3.1,2.6-4.7,6-4.7,10.4c0,4.4,1.6,7.5,4.9,10.1c3.1,2.6,7.3,3.9,12.5,3.9
	c4.7,0,10.4-1.3,17.4-4.4V393.3z M338.4,360c0-9.9,3.4-18.7,10.1-26.3c6.8-7.8,17.7-11.7,32.5-11.7c15.4,0.3,26.5,4.4,33,12.2
	c6.5,7.5,9.9,16.1,9.6,25.8c0,10.1-3.4,19-10.4,26.3c-7,7.8-17.7,11.7-32.3,11.7c-15.1-0.3-26.3-4.4-33-12.5
	C341.6,377.9,338.2,369.3,338.4,360z M366.3,360c0,4.2,1.3,7.5,4.2,10.1c2.6,2.6,6.2,3.9,10.7,3.9c4.4,0,8.1-1.3,10.7-3.9
	c2.6-2.6,4.2-6,4.2-10.1s-1.3-7.8-4.2-10.4c-2.6-2.6-6.2-3.9-10.7-3.9s-8.1,1.3-10.7,3.9C367.8,352.2,366.3,355.5,366.3,360z
	 M428.7,323.3h28.1v9.6c6.8-7.3,14.3-10.9,23.2-10.9c9.9,0,17.2,4.2,22.4,13c7.5-8.6,16.4-13,26.5-13c8.1,0,14.1,2.9,17.7,8.3
	c3.6,5.5,5.5,12,5.5,19.5v47.1H524v-42.4c0-2.6-0.8-4.9-2.1-6.5c-1.6-1.6-3.4-2.3-6-2.3c-4.4,0.3-8.3,2.6-11.4,7.5v43.5h-28.1V355
	c0-2.9-0.8-5.2-2.1-6.8c-1.6-1.6-3.6-2.3-6.2-2.6c-3.9,0.3-7.8,2.6-11.2,7.5v43.5h-28.1V323.3z"/>
</svg>
